<?xml version="1.0" encoding="utf-8"?>
<!-- Generator: Adobe Illustrator 24.3.0, SVG Export Plug-In . SVG Version: 6.00 Build 0)  -->
<svg version="1.1" id="Capa_1" xmlns="http://www.w3.org/2000/svg" xmlns:xlink="http://www.w3.org/1999/xlink" x="0px" y="0px"
	 viewBox="0 0 120.39 53.12" style="enable-background:new 0 0 120.39 53.12;" xml:space="preserve">
<style type="text/css">
	.st0{fill:#0199DD;}
</style>
<g>
	<path class="st0" d="M65.99,36.2c-3.93,0-7.85,0-11.78,0c-1.16,0-1.2,0.03-0.92,1.18c0.83,3.45,2.63,6.21,6.02,7.57
		c4.03,1.63,7.93,1.12,11.6-1.18c0.29-0.18,0.57-0.4,0.85-0.59c1.62-1.12,3.62-0.84,4.79,0.67c1.17,1.51,0.93,3.69-0.55,4.92
		c-1.67,1.39-3.52,2.49-5.6,3.14c-5.63,1.76-11.14,1.52-16.36-1.37c-4.88-2.71-7.78-6.96-8.97-12.36
		c-0.93-4.22-0.86-8.44,0.77-12.49c2.69-6.69,7.52-10.98,14.72-12.14c7.9-1.26,14.86,2.76,18.02,10.11
		c1.38,3.22,1.96,6.59,1.96,10.07c0,1.44-1.04,2.45-2.51,2.46C74.02,36.21,70,36.2,65.99,36.2z M62.54,30.46c2.92,0,5.84,0,8.76,0
		c0.7,0,0.8-0.12,0.7-0.81c-0.2-1.3-0.55-2.56-1.09-3.77c-2.95-6.61-10.81-6.79-14.61-2.8c-1.73,1.82-2.69,4-3.15,6.44
		c-0.17,0.89-0.12,0.94,0.78,0.94C56.8,30.46,59.67,30.46,62.54,30.46z"/>
	<path class="st0" d="M6.48,35.91c0-3.63,0.01-7.27-0.01-10.9c0-0.83,0.08-1.67-0.06-2.5c-0.82-0.01-1.64-0.03-2.45-0.04
		c-0.26,0-0.51,0-0.77-0.03C1.22,22.18-0.08,20.61,0,18.6c0.08-1.87,1.57-3.34,3.53-3.42c0.8-0.03,1.61-0.03,2.41,0
		C6.36,15.2,6.5,15.1,6.5,14.65c-0.02-1.79-0.07-3.58,0.21-5.35c0.51-3.26,1.79-6.04,4.76-7.79c1.47-0.87,3.09-1.3,4.78-1.43
		c1.93-0.15,3.87-0.12,5.78,0.27c1.83,0.37,2.99,2.1,2.76,4.02c-0.21,1.79-1.77,3.15-3.59,3.1c-0.88-0.02-1.75-0.11-2.62,0.04
		c-1.94,0.35-3.15,1.62-3.53,3.68c-0.23,1.25-0.14,2.51-0.17,3.77c-0.01,0.37,0.24,0.3,0.44,0.3c1.97,0,3.94-0.01,5.92,0.01
		c1.74,0.02,3.21,1.32,3.45,3.01c0.26,1.87-0.77,3.53-2.5,4.04c-0.41,0.12-0.82,0.16-1.24,0.16c-1.79,0-3.58,0.02-5.37-0.01
		c-0.47-0.01-0.56,0.13-0.56,0.58c0.01,8.45,0.01,16.9,0.01,25.36c0,1.9-0.78,3.38-2.52,4.2c-2.79,1.32-5.99-0.77-6.01-3.92
		C6.47,44.42,6.48,40.16,6.48,35.91z"/>
	<path class="st0" d="M29.48,26.7c0-7.27,0-14.53,0-21.8c0-2.11,1.24-3.8,3.12-4.33c2.71-0.75,5.27,1.22,5.41,4.16
		c0.01,0.13,0,0.26,0,0.38c0,14.39,0,28.77,0,43.16c0,1.94-0.74,3.46-2.53,4.31c-2.73,1.29-5.95-0.72-5.98-3.76
		c-0.05-4.65-0.02-9.31-0.02-13.97C29.48,32.14,29.48,29.42,29.48,26.7z"/>
	<path class="st0" d="M116.5,13.91c1.28,0.05,2.59,0.82,3.36,2.34c0.81,1.59,0.68,3.17-0.31,4.67c-0.18,0.27-0.41,0.51-0.64,0.75
		c-9.52,9.72-19.04,19.44-28.56,29.15c-0.28,0.29-0.55,0.58-0.84,0.86c-1.67,1.61-4.18,1.72-5.86,0.26
		c-1.75-1.52-2.07-4.12-0.72-5.99c0.19-0.27,0.41-0.51,0.64-0.75c9.72-9.93,19.45-19.85,29.17-29.78
		C113.66,14.47,114.71,13.89,116.5,13.91z"/>
	<path class="st0" d="M96.99,25.32c-0.04,1.39-0.55,2.74-1.62,3.85c-1.25,1.3-2.52,2.59-3.79,3.88c-0.17,0.17-0.33,0.36-0.61,0.22
		c-0.27-0.14-0.24-0.39-0.2-0.62c0.36-2.17-0.34-3.98-1.85-5.52c-1.87-1.9-3.75-3.78-5.58-5.72c-2.03-2.15-1.49-5.57,1.05-6.99
		c1.61-0.89,3.65-0.69,4.97,0.62c2.09,2.07,4.13,4.18,6.17,6.3C96.51,22.35,97,23.76,96.99,25.32z"/>
	<path class="st0" d="M116.13,52.97c-1.4,0-2.42-0.5-3.28-1.37c-1.89-1.93-3.79-3.85-5.66-5.79c-2.29-2.37-2.3-5.83-0.01-8.21
		c1.21-1.26,2.45-2.51,3.67-3.76c0.18-0.19,0.37-0.39,0.66-0.24c0.27,0.14,0.21,0.4,0.17,0.63c-0.36,2.24,0.42,4.07,1.98,5.64
		c1.82,1.82,3.62,3.66,5.4,5.51c2.32,2.42,1.37,6.38-1.75,7.39C116.88,52.91,116.43,52.98,116.13,52.97z"/>
</g>
</svg>
